<svg xmlns="http://www.w3.org/2000/svg" width="2460" height="1392" viewBox="0 0 2460 1392">
<defs>
<filter id="shadow" x="-20%" y="-20%" width="140%" height="140%"><feDropShadow dx="0" dy="10" stdDeviation="12" flood-color="#0f172a" flood-opacity="0.12"/></filter>
</defs>
<rect width="2460" height="1392" fill="#f6f8fb"/>
<g filter="url(#shadow)"><rect x="88" y="34" width="2284" height="168" rx="18" fill="#ffffff" stroke="#dfe6ee" stroke-width="1.5"/></g>
<text x="120" y="92" font-family="Microsoft YaHei, Arial, sans-serif" font-size="30" font-weight="700" fill="#111827">TFM 物质流图</text>
<text x="120" y="126" font-family="Arial, sans-serif" font-size="17" font-weight="600" fill="#1f2937">Tenke Fungurume Mining (TFM)</text>
<text x="120" y="156" font-family="Microsoft YaHei, Arial, sans-serif" font-size="15" fill="#4b5d73">边宽代表 workbook 路径出现次数，节点按阶段从左到右展开。</text>
<text x="120" y="184" font-family="Microsoft YaHei, Arial, sans-serif" font-size="15" fill="#1f6fb9">阶段顺序：Mining → Smelting → Trading → Refining → Precursor → Cathode → Cell → Pack → EV / Scooter</text>
<rect x="104" y="226" width="234" height="1132" rx="22" fill="#c7d4e6" fill-opacity="0.17"/>
<g><rect x="110" y="184" width="156" height="34" rx="17" fill="#3de2d8" fill-opacity="0.18"/><text x="120" y="208" font-family="Arial, sans-serif" font-size="15" font-weight="700" fill="#0f172a">Mining</text></g>
<rect x="354" y="226" width="234" height="1132" rx="22" fill="#c7d4e6" fill-opacity="0.17"/>
<g><rect x="360" y="184" width="156" height="34" rx="17" fill="#8fff68" fill-opacity="0.18"/><text x="370" y="208" font-family="Arial, sans-serif" font-size="15" font-weight="700" fill="#0f172a">Smelting</text></g>
<rect x="604" y="226" width="234" height="1132" rx="22" fill="#c7d4e6" fill-opacity="0.17"/>
<g><rect x="610" y="184" width="156" height="34" rx="17" fill="#ffd85a" fill-opacity="0.18"/><text x="620" y="208" font-family="Arial, sans-serif" font-size="15" font-weight="700" fill="#0f172a">Trading</text></g>
<rect x="854" y="226" width="234" height="1132" rx="22" fill="#c7d4e6" fill-opacity="0.17"/>
<g><rect x="860" y="184" width="156" height="34" rx="17" fill="#d6ff56" fill-opacity="0.18"/><text x="870" y="208" font-family="Arial, sans-serif" font-size="15" font-weight="700" fill="#0f172a">Refining</text></g>
<rect x="1104" y="226" width="234" height="1132" rx="22" fill="#c7d4e6" fill-opacity="0.17"/>
<g><rect x="1110" y="184" width="156" height="34" rx="17" fill="#ffae57" fill-opacity="0.18"/><text x="1120" y="208" font-family="Arial, sans-serif" font-size="15" font-weight="700" fill="#0f172a">Precursor</text></g>
<rect x="1354" y="226" width="234" height="1132" rx="22" fill="#c7d4e6" fill-opacity="0.17"/>
<g><rect x="1360" y="184" width="156" height="34" rx="17" fill="#ff7d7d" fill-opacity="0.18"/><text x="1370" y="208" font-family="Arial, sans-serif" font-size="15" font-weight="700" fill="#0f172a">Cathode</text></g>
<rect x="1604" y="226" width="234" height="1132" rx="22" fill="#c7d4e6" fill-opacity="0.17"/>
<g><rect x="1610" y="184" width="156" height="34" rx="17" fill="#ff64c8" fill-opacity="0.18"/><text x="1620" y="208" font-family="Arial, sans-serif" font-size="15" font-weight="700" fill="#0f172a">Cell</text></g>
<rect x="1854" y="226" width="234" height="1132" rx="22" fill="#c7d4e6" fill-opacity="0.17"/>
<g><rect x="1860" y="184" width="156" height="34" rx="17" fill="#d18bff" fill-opacity="0.18"/><text x="1870" y="208" font-family="Arial, sans-serif" font-size="15" font-weight="700" fill="#0f172a">Pack</text></g>
<rect x="2104" y="226" width="234" height="1132" rx="22" fill="#c7d4e6" fill-opacity="0.17"/>
<g><rect x="2110" y="184" width="156" height="34" rx="17" fill="#7ab6ff" fill-opacity="0.18"/><text x="2120" y="208" font-family="Arial, sans-serif" font-size="15" font-weight="700" fill="#0f172a">EV / Scooter</text></g>
<path d="M 574.0 594.7 C 1013.3 594.7, 1180.7 837.3, 1620.0 837.3" stroke="#486179" stroke-opacity="0.22" stroke-width="2.33" fill="none"/>
<path d="M 574.0 949.3 C 1013.3 949.3, 1180.7 837.3, 1620.0 837.3" stroke="#486179" stroke-opacity="0.22" stroke-width="2.33" fill="none"/>
<path d="M 574.0 594.7 C 1118.3 594.7, 1325.7 506.0, 1870.0 506.0" stroke="#486179" stroke-opacity="0.22" stroke-width="2.33" fill="none"/>
<path d="M 574.0 949.3 C 1118.3 949.3, 1325.7 506.0, 1870.0 506.0" stroke="#486179" stroke-opacity="0.22" stroke-width="2.33" fill="none"/>
<path d="M 574.0 594.7 C 1118.3 594.7, 1325.7 1126.7, 1870.0 1126.7" stroke="#486179" stroke-opacity="0.22" stroke-width="2.33" fill="none"/>
<path d="M 574.0 949.3 C 1118.3 949.3, 1325.7 1126.7, 1870.0 1126.7" stroke="#486179" stroke-opacity="0.22" stroke-width="2.33" fill="none"/>
<path d="M 574.0 594.7 C 1118.3 594.7, 1325.7 328.7, 1870.0 328.7" stroke="#486179" stroke-opacity="0.22" stroke-width="2.33" fill="none"/>
<path d="M 574.0 949.3 C 1118.3 949.3, 1325.7 328.7, 1870.0 328.7" stroke="#486179" stroke-opacity="0.22" stroke-width="2.33" fill="none"/>
<path d="M 574.0 594.7 C 593.3 594.7, 600.7 544.0, 620.0 544.0" stroke="#486179" stroke-opacity="0.22" stroke-width="2.33" fill="none"/>
<path d="M 574.0 594.7 C 593.3 594.7, 600.7 696.0, 620.0 696.0" stroke="#486179" stroke-opacity="0.22" stroke-width="2.33" fill="none"/>
<path d="M 574.0 594.7 C 593.3 594.7, 600.7 848.0, 620.0 848.0" stroke="#486179" stroke-opacity="0.22" stroke-width="2.33" fill="none"/>
<path d="M 574.0 594.7 C 593.3 594.7, 600.7 1000.0, 620.0 1000.0" stroke="#486179" stroke-opacity="0.22" stroke-width="2.33" fill="none"/>
<path d="M 574.0 594.7 C 593.3 594.7, 600.7 1152.0, 620.0 1152.0" stroke="#486179" stroke-opacity="0.22" stroke-width="2.33" fill="none"/>
<path d="M 574.0 594.7 C 1013.3 594.7, 1180.7 954.0, 1620.0 954.0" stroke="#486179" stroke-opacity="0.22" stroke-width="2.33" fill="none"/>
<path d="M 574.0 949.3 C 1013.3 949.3, 1180.7 954.0, 1620.0 954.0" stroke="#486179" stroke-opacity="0.22" stroke-width="2.33" fill="none"/>
<path d="M 574.0 594.7 C 1013.3 594.7, 1180.7 1070.7, 1620.0 1070.7" stroke="#486179" stroke-opacity="0.22" stroke-width="2.33" fill="none"/>
<path d="M 574.0 949.3 C 1013.3 949.3, 1180.7 1070.7, 1620.0 1070.7" stroke="#486179" stroke-opacity="0.22" stroke-width="2.33" fill="none"/>
<path d="M 1074.0 590.0 C 1303.3 590.0, 1390.7 837.3, 1620.0 837.3" stroke="#486179" stroke-opacity="0.22" stroke-width="2.52" fill="none"/>
<path d="M 1074.0 590.0 C 1408.3 590.0, 1535.7 506.0, 1870.0 506.0" stroke="#486179" stroke-opacity="0.22" stroke-width="2.52" fill="none"/>
<path d="M 1074.0 590.0 C 1408.3 590.0, 1535.7 1126.7, 1870.0 1126.7" stroke="#486179" stroke-opacity="0.22" stroke-width="2.52" fill="none"/>
<path d="M 1074.0 590.0 C 1408.3 590.0, 1535.7 328.7, 1870.0 328.7" stroke="#486179" stroke-opacity="0.22" stroke-width="2.52" fill="none"/>
<path d="M 1074.0 947.0 C 1303.3 947.0, 1390.7 954.0, 1620.0 954.0" stroke="#486179" stroke-opacity="0.22" stroke-width="2.52" fill="none"/>
<path d="M 1074.0 947.0 C 1303.3 947.0, 1390.7 1070.7, 1620.0 1070.7" stroke="#486179" stroke-opacity="0.22" stroke-width="2.52" fill="none"/>
<path d="M 1074.0 590.0 C 1303.3 590.0, 1390.7 954.0, 1620.0 954.0" stroke="#486179" stroke-opacity="0.22" stroke-width="2.52" fill="none"/>
<path d="M 1074.0 590.0 C 1303.3 590.0, 1390.7 1070.7, 1620.0 1070.7" stroke="#486179" stroke-opacity="0.22" stroke-width="2.52" fill="none"/>
<path d="M 574.0 594.7 C 1013.3 594.7, 1180.7 597.0, 1620.0 597.0" stroke="#486179" stroke-opacity="0.22" stroke-width="2.52" fill="none"/>
<path d="M 574.0 949.3 C 1013.3 949.3, 1180.7 597.0, 1620.0 597.0" stroke="#486179" stroke-opacity="0.22" stroke-width="2.52" fill="none"/>
<path d="M 574.0 594.7 C 1013.3 594.7, 1180.7 720.7, 1620.0 720.7" stroke="#486179" stroke-opacity="0.22" stroke-width="2.52" fill="none"/>
<path d="M 574.0 949.3 C 1013.3 949.3, 1180.7 720.7, 1620.0 720.7" stroke="#486179" stroke-opacity="0.22" stroke-width="2.52" fill="none"/>
<path d="M 824.0 392.0 C 1158.3 392.0, 1285.7 1187.3, 1620.0 1187.3" stroke="#486179" stroke-opacity="0.22" stroke-width="2.52" fill="none"/>
<path d="M 1324.0 772.0 C 1448.3 772.0, 1495.7 837.3, 1620.0 837.3" stroke="#486179" stroke-opacity="0.22" stroke-width="2.67" fill="none"/>
<path d="M 1324.0 772.0 C 1553.3 772.0, 1640.7 506.0, 1870.0 506.0" stroke="#486179" stroke-opacity="0.22" stroke-width="2.67" fill="none"/>
<path d="M 1324.0 772.0 C 1553.3 772.0, 1640.7 1126.7, 1870.0 1126.7" stroke="#486179" stroke-opacity="0.22" stroke-width="2.67" fill="none"/>
<path d="M 1324.0 772.0 C 1553.3 772.0, 1640.7 328.7, 1870.0 328.7" stroke="#486179" stroke-opacity="0.22" stroke-width="2.67" fill="none"/>
<path d="M 1324.0 772.0 C 1448.3 772.0, 1495.7 954.0, 1620.0 954.0" stroke="#486179" stroke-opacity="0.22" stroke-width="2.67" fill="none"/>
<path d="M 1324.0 772.0 C 1448.3 772.0, 1495.7 1070.7, 1620.0 1070.7" stroke="#486179" stroke-opacity="0.22" stroke-width="2.67" fill="none"/>
<path d="M 1074.0 590.0 C 1303.3 590.0, 1390.7 597.0, 1620.0 597.0" stroke="#486179" stroke-opacity="0.22" stroke-width="2.81" fill="none"/>
<path d="M 1074.0 590.0 C 1303.3 590.0, 1390.7 720.7, 1620.0 720.7" stroke="#486179" stroke-opacity="0.22" stroke-width="2.81" fill="none"/>
<path d="M 1574.0 772.0 C 1593.3 772.0, 1600.7 837.3, 1620.0 837.3" stroke="#486179" stroke-opacity="0.22" stroke-width="3.05" fill="none"/>
<path d="M 1324.0 772.0 C 1448.3 772.0, 1495.7 597.0, 1620.0 597.0" stroke="#486179" stroke-opacity="0.22" stroke-width="3.05" fill="none"/>
<path d="M 1324.0 772.0 C 1448.3 772.0, 1495.7 720.7, 1620.0 720.7" stroke="#486179" stroke-opacity="0.22" stroke-width="3.05" fill="none"/>
<path d="M 1574.0 772.0 C 1698.3 772.0, 1745.7 506.0, 1870.0 506.0" stroke="#486179" stroke-opacity="0.22" stroke-width="3.05" fill="none"/>
<path d="M 1574.0 772.0 C 1698.3 772.0, 1745.7 1126.7, 1870.0 1126.7" stroke="#486179" stroke-opacity="0.22" stroke-width="3.05" fill="none"/>
<path d="M 1574.0 772.0 C 1698.3 772.0, 1745.7 328.7, 1870.0 328.7" stroke="#486179" stroke-opacity="0.22" stroke-width="3.05" fill="none"/>
<path d="M 1574.0 772.0 C 1593.3 772.0, 1600.7 954.0, 1620.0 954.0" stroke="#486179" stroke-opacity="0.22" stroke-width="3.05" fill="none"/>
<path d="M 1574.0 772.0 C 1593.3 772.0, 1600.7 1070.7, 1620.0 1070.7" stroke="#486179" stroke-opacity="0.22" stroke-width="3.05" fill="none"/>
<path d="M 574.0 594.7 C 1013.3 594.7, 1180.7 473.3, 1620.0 473.3" stroke="#486179" stroke-opacity="0.22" stroke-width="3.05" fill="none"/>
<path d="M 574.0 949.3 C 1013.3 949.3, 1180.7 473.3, 1620.0 473.3" stroke="#486179" stroke-opacity="0.22" stroke-width="3.05" fill="none"/>
<path d="M 1574.0 772.0 C 1593.3 772.0, 1600.7 597.0, 1620.0 597.0" stroke="#486179" stroke-opacity="0.22" stroke-width="3.65" fill="none"/>
<path d="M 1824.0 597.0 C 1843.3 597.0, 1850.7 417.3, 1870.0 417.3" stroke="#486179" stroke-opacity="0.22" stroke-width="3.65" fill="none"/>
<path d="M 1824.0 837.3 C 1843.3 837.3, 1850.7 328.7, 1870.0 328.7" stroke="#486179" stroke-opacity="0.22" stroke-width="3.65" fill="none"/>
<path d="M 1824.0 473.3 C 1843.3 473.3, 1850.7 506.0, 1870.0 506.0" stroke="#486179" stroke-opacity="0.22" stroke-width="3.65" fill="none"/>
<path d="M 1824.0 473.3 C 1843.3 473.3, 1850.7 328.7, 1870.0 328.7" stroke="#486179" stroke-opacity="0.22" stroke-width="3.65" fill="none"/>
<path d="M 1574.0 772.0 C 1593.3 772.0, 1600.7 720.7, 1620.0 720.7" stroke="#486179" stroke-opacity="0.22" stroke-width="3.65" fill="none"/>
<path d="M 1824.0 720.7 C 1843.3 720.7, 1850.7 1215.3, 1870.0 1215.3" stroke="#486179" stroke-opacity="0.22" stroke-width="3.65" fill="none"/>
<path d="M 2074.0 1215.3 C 2093.3 1215.3, 2100.7 665.6, 2120.0 665.6" stroke="#486179" stroke-opacity="0.22" stroke-width="3.65" fill="none"/>
<path d="M 2074.0 1126.7 C 2093.3 1126.7, 2100.7 594.7, 2120.0 594.7" stroke="#486179" stroke-opacity="0.22" stroke-width="3.65" fill="none"/>
<path d="M 1824.0 597.0 C 1843.3 597.0, 1850.7 594.7, 1870.0 594.7" stroke="#486179" stroke-opacity="0.22" stroke-width="3.65" fill="none"/>
<path d="M 1824.0 473.3 C 1948.3 473.3, 1995.7 452.8, 2120.0 452.8" stroke="#486179" stroke-opacity="0.22" stroke-width="3.65" fill="none"/>
<path d="M 1824.0 473.3 C 1948.3 473.3, 1995.7 381.9, 2120.0 381.9" stroke="#486179" stroke-opacity="0.22" stroke-width="3.65" fill="none"/>
<path d="M 1824.0 473.3 C 1948.3 473.3, 1995.7 1233.1, 2120.0 1233.1" stroke="#486179" stroke-opacity="0.22" stroke-width="3.65" fill="none"/>
<path d="M 1824.0 473.3 C 1843.3 473.3, 1850.7 594.7, 1870.0 594.7" stroke="#486179" stroke-opacity="0.22" stroke-width="3.65" fill="none"/>
<path d="M 1824.0 720.7 C 1948.3 720.7, 1995.7 665.6, 2120.0 665.6" stroke="#486179" stroke-opacity="0.22" stroke-width="3.65" fill="none"/>
<path d="M 1074.0 590.0 C 1303.3 590.0, 1390.7 473.3, 1620.0 473.3" stroke="#486179" stroke-opacity="0.22" stroke-width="3.65" fill="none"/>
<path d="M 1824.0 356.7 C 1843.3 356.7, 1850.7 683.3, 1870.0 683.3" stroke="#486179" stroke-opacity="0.22" stroke-width="3.83" fill="none"/>
<path d="M 2074.0 683.3 C 2093.3 683.3, 2100.7 381.9, 2120.0 381.9" stroke="#486179" stroke-opacity="0.22" stroke-width="3.83" fill="none"/>
<path d="M 1824.0 356.7 C 1843.3 356.7, 1850.7 772.0, 1870.0 772.0" stroke="#486179" stroke-opacity="0.22" stroke-width="3.83" fill="none"/>
<path d="M 2074.0 772.0 C 2093.3 772.0, 2100.7 807.5, 2120.0 807.5" stroke="#486179" stroke-opacity="0.22" stroke-width="3.83" fill="none"/>
<path d="M 1824.0 356.7 C 1843.3 356.7, 1850.7 860.7, 1870.0 860.7" stroke="#486179" stroke-opacity="0.22" stroke-width="3.83" fill="none"/>
<path d="M 2074.0 860.7 C 2093.3 860.7, 2100.7 1020.3, 2120.0 1020.3" stroke="#486179" stroke-opacity="0.22" stroke-width="3.83" fill="none"/>
<path d="M 1824.0 356.7 C 1843.3 356.7, 1850.7 417.3, 1870.0 417.3" stroke="#486179" stroke-opacity="0.22" stroke-width="3.83" fill="none"/>
<path d="M 1824.0 356.7 C 1843.3 356.7, 1850.7 949.3, 1870.0 949.3" stroke="#486179" stroke-opacity="0.22" stroke-width="3.83" fill="none"/>
<path d="M 2074.0 949.3 C 2093.3 949.3, 2100.7 594.7, 2120.0 594.7" stroke="#486179" stroke-opacity="0.22" stroke-width="3.83" fill="none"/>
<path d="M 1824.0 356.7 C 1843.3 356.7, 1850.7 328.7, 1870.0 328.7" stroke="#486179" stroke-opacity="0.22" stroke-width="3.83" fill="none"/>
<path d="M 1824.0 356.7 C 1843.3 356.7, 1850.7 1038.0, 1870.0 1038.0" stroke="#486179" stroke-opacity="0.22" stroke-width="3.83" fill="none"/>
<path d="M 2074.0 1038.0 C 2093.3 1038.0, 2100.7 1162.1, 2120.0 1162.1" stroke="#486179" stroke-opacity="0.22" stroke-width="3.83" fill="none"/>
<path d="M 1824.0 356.7 C 1948.3 356.7, 1995.7 736.5, 2120.0 736.5" stroke="#486179" stroke-opacity="0.22" stroke-width="3.83" fill="none"/>
<path d="M 1824.0 356.7 C 1948.3 356.7, 1995.7 878.4, 2120.0 878.4" stroke="#486179" stroke-opacity="0.22" stroke-width="3.83" fill="none"/>
<path d="M 1824.0 356.7 C 1948.3 356.7, 1995.7 949.3, 2120.0 949.3" stroke="#486179" stroke-opacity="0.22" stroke-width="3.83" fill="none"/>
<path d="M 1824.0 356.7 C 1948.3 356.7, 1995.7 381.9, 2120.0 381.9" stroke="#486179" stroke-opacity="0.22" stroke-width="3.83" fill="none"/>
<path d="M 1824.0 356.7 C 1948.3 356.7, 1995.7 1091.2, 2120.0 1091.2" stroke="#486179" stroke-opacity="0.22" stroke-width="3.83" fill="none"/>
<path d="M 1824.0 356.7 C 1843.3 356.7, 1850.7 594.7, 1870.0 594.7" stroke="#486179" stroke-opacity="0.22" stroke-width="3.83" fill="none"/>
<path d="M 574.0 594.7 C 1013.3 594.7, 1180.7 356.7, 1620.0 356.7" stroke="#486179" stroke-opacity="0.22" stroke-width="3.91" fill="none"/>
<path d="M 574.0 949.3 C 1013.3 949.3, 1180.7 356.7, 1620.0 356.7" stroke="#486179" stroke-opacity="0.22" stroke-width="3.91" fill="none"/>
<path d="M 1324.0 772.0 C 1448.3 772.0, 1495.7 473.3, 1620.0 473.3" stroke="#486179" stroke-opacity="0.22" stroke-width="4.15" fill="none"/>
<path d="M 2074.0 506.0 C 2093.3 506.0, 2100.7 452.8, 2120.0 452.8" stroke="#486179" stroke-opacity="0.22" stroke-width="4.60" fill="none"/>
<path d="M 2074.0 417.3 C 2093.3 417.3, 2100.7 523.7, 2120.0 523.7" stroke="#486179" stroke-opacity="0.22" stroke-width="4.73" fill="none"/>
<path d="M 574.0 594.7 C 908.3 594.7, 1035.7 772.0, 1370.0 772.0" stroke="#486179" stroke-opacity="0.22" stroke-width="4.94" fill="none"/>
<path d="M 574.0 949.3 C 908.3 949.3, 1035.7 772.0, 1370.0 772.0" stroke="#486179" stroke-opacity="0.22" stroke-width="4.94" fill="none"/>
<path d="M 824.0 392.0 C 843.3 392.0, 850.7 947.0, 870.0 947.0" stroke="#486179" stroke-opacity="0.22" stroke-width="5.00" fill="none"/>
<path d="M 1074.0 947.0 C 1303.3 947.0, 1390.7 356.7, 1620.0 356.7" stroke="#486179" stroke-opacity="0.22" stroke-width="5.00" fill="none"/>
<path d="M 1074.0 590.0 C 1303.3 590.0, 1390.7 356.7, 1620.0 356.7" stroke="#486179" stroke-opacity="0.22" stroke-width="5.00" fill="none"/>
<path d="M 1574.0 772.0 C 1593.3 772.0, 1600.7 473.3, 1620.0 473.3" stroke="#486179" stroke-opacity="0.22" stroke-width="5.38" fill="none"/>
<path d="M 1324.0 772.0 C 1448.3 772.0, 1495.7 356.7, 1620.0 356.7" stroke="#486179" stroke-opacity="0.22" stroke-width="5.91" fill="none"/>
<path d="M 2074.0 328.7 C 2093.3 328.7, 2100.7 310.9, 2120.0 310.9" stroke="#486179" stroke-opacity="0.22" stroke-width="6.18" fill="none"/>
<path d="M 1074.0 590.0 C 1198.3 590.0, 1245.7 772.0, 1370.0 772.0" stroke="#486179" stroke-opacity="0.22" stroke-width="6.61" fill="none"/>
<path d="M 574.0 594.7 C 803.3 594.7, 890.7 772.0, 1120.0 772.0" stroke="#486179" stroke-opacity="0.22" stroke-width="6.61" fill="none"/>
<path d="M 574.0 949.3 C 803.3 949.3, 890.7 772.0, 1120.0 772.0" stroke="#486179" stroke-opacity="0.22" stroke-width="6.61" fill="none"/>
<path d="M 1324.0 772.0 C 1343.3 772.0, 1350.7 772.0, 1370.0 772.0" stroke="#486179" stroke-opacity="0.22" stroke-width="8.00" fill="none"/>
<path d="M 1574.0 772.0 C 1593.3 772.0, 1600.7 356.7, 1620.0 356.7" stroke="#486179" stroke-opacity="0.22" stroke-width="8.13" fill="none"/>
<path d="M 1074.0 590.0 C 1093.3 590.0, 1100.7 772.0, 1120.0 772.0" stroke="#486179" stroke-opacity="0.22" stroke-width="9.23" fill="none"/>
<path d="M 324.0 772.0 C 343.3 772.0, 350.7 949.3, 370.0 949.3" stroke="#486179" stroke-opacity="0.22" stroke-width="9.23" fill="none"/>
<path d="M 574.0 594.7 C 593.3 594.7, 600.7 392.0, 620.0 392.0" stroke="#486179" stroke-opacity="0.22" stroke-width="9.86" fill="none"/>
<path d="M 324.0 772.0 C 448.3 772.0, 495.7 392.0, 620.0 392.0" stroke="#486179" stroke-opacity="0.22" stroke-width="9.86" fill="none"/>
<path d="M 824.0 392.0 C 843.3 392.0, 850.7 590.0, 870.0 590.0" stroke="#486179" stroke-opacity="0.22" stroke-width="13.34" fill="none"/>
<path d="M 324.0 772.0 C 343.3 772.0, 350.7 594.7, 370.0 594.7" stroke="#486179" stroke-opacity="0.22" stroke-width="14.00" fill="none"/>
<g filter="url(#shadow)"><rect x="120" y="752.0" width="204" height="40.0" rx="14" fill="white" stroke="#3de2d8" stroke-width="2"/><rect x="120" y="752.0" width="10" height="40.0" rx="14" fill="#3de2d8"/>
<text x="138" y="773.0" font-family="Arial, sans-serif" font-size="12.5" fill="#111827">Tenke Fungurume Mining (TFM)</text>
<text x="310" y="776.0" text-anchor="end" font-family="Arial, sans-serif" font-size="11.5" fill="#64748b">501</text></g>
<g filter="url(#shadow)"><rect x="370" y="574.7" width="204" height="40.0" rx="14" fill="white" stroke="#8fff68" stroke-width="2"/><rect x="370" y="574.7" width="10" height="40.0" rx="14" fill="#8fff68"/>
<text x="388" y="595.7" font-family="Arial, sans-serif" font-size="12.5" fill="#111827">Tenke Fungurume Mining (TFM)</text>
<text x="560" y="598.7" text-anchor="end" font-family="Arial, sans-serif" font-size="11.5" fill="#64748b">508</text></g>
<g filter="url(#shadow)"><rect x="370" y="929.3" width="204" height="40.0" rx="14" fill="white" stroke="#8fff68" stroke-width="2"/><rect x="370" y="929.3" width="10" height="40.0" rx="14" fill="#8fff68"/>
<text x="388" y="950.3" font-family="Arial, sans-serif" font-size="12.5" fill="#111827">Umicore S.A.</text>
<text x="560" y="953.3" text-anchor="end" font-family="Arial, sans-serif" font-size="11.5" fill="#64748b">234</text></g>
<g filter="url(#shadow)"><rect x="620" y="372.0" width="204" height="40.0" rx="14" fill="white" stroke="#ffd85a" stroke-width="2"/><rect x="620" y="372.0" width="10" height="40.0" rx="14" fill="#ffd85a"/>
<text x="638" y="393.0" font-family="Arial, sans-serif" font-size="12.5" fill="#111827">IXM SA</text>
<text x="810" y="396.0" text-anchor="end" font-family="Arial, sans-serif" font-size="11.5" fill="#64748b">528</text></g>
<g filter="url(#shadow)"><rect x="620" y="524.0" width="204" height="40.0" rx="14" fill="white" stroke="#ffd85a" stroke-width="2"/><rect x="620" y="524.0" width="10" height="40.0" rx="14" fill="#ffd85a"/>
<text x="638" y="545.0" font-family="Arial, sans-serif" font-size="12.5" fill="#111827">Bridge Shipping</text>
<text x="810" y="548.0" text-anchor="end" font-family="Arial, sans-serif" font-size="11.5" fill="#64748b">1</text></g>
<g filter="url(#shadow)"><rect x="620" y="676.0" width="204" height="40.0" rx="14" fill="white" stroke="#ffd85a" stroke-width="2"/><rect x="620" y="676.0" width="10" height="40.0" rx="14" fill="#ffd85a"/>
<text x="638" y="697.0" font-family="Arial, sans-serif" font-size="12.5" fill="#111827">CMOC Limited</text>
<text x="810" y="700.0" text-anchor="end" font-family="Arial, sans-serif" font-size="11.5" fill="#64748b">1</text></g>
<g filter="url(#shadow)"><rect x="620" y="828.0" width="204" height="40.0" rx="14" fill="white" stroke="#ffd85a" stroke-width="2"/><rect x="620" y="828.0" width="10" height="40.0" rx="14" fill="#ffd85a"/>
<text x="638" y="849.0" font-family="Arial, sans-serif" font-size="12.5" fill="#111827">Smart Logistics</text>
<text x="810" y="852.0" text-anchor="end" font-family="Arial, sans-serif" font-size="11.5" fill="#64748b">1</text></g>
<g filter="url(#shadow)"><rect x="620" y="980.0" width="204" height="40.0" rx="14" fill="white" stroke="#ffd85a" stroke-width="2"/><rect x="620" y="980.0" width="10" height="40.0" rx="14" fill="#ffd85a"/>
<text x="638" y="1001.0" font-family="Arial, sans-serif" font-size="12.5" fill="#111827">Trafigura Group Pte. Ltd.</text>
<text x="810" y="1004.0" text-anchor="end" font-family="Arial, sans-serif" font-size="11.5" fill="#64748b">1</text></g>
<g filter="url(#shadow)"><rect x="620" y="1132.0" width="204" height="40.0" rx="14" fill="white" stroke="#ffd85a" stroke-width="2"/><rect x="620" y="1132.0" width="10" height="40.0" rx="14" fill="#ffd85a"/>
<text x="638" y="1153.0" font-family="Arial, sans-serif" font-size="12.5" fill="#111827">VS Cargo</text>
<text x="810" y="1156.0" text-anchor="end" font-family="Arial, sans-serif" font-size="11.5" fill="#64748b">1</text></g>
<g filter="url(#shadow)"><rect x="870" y="570.0" width="204" height="40.0" rx="14" fill="white" stroke="#d6ff56" stroke-width="2"/><rect x="870" y="570.0" width="10" height="40.0" rx="14" fill="#d6ff56"/>
<text x="888" y="591.0" font-family="Arial, sans-serif" font-size="12.5" fill="#111827">Umicore S.A.</text>
<text x="1060" y="594.0" text-anchor="end" font-family="Arial, sans-serif" font-size="11.5" fill="#64748b">468</text></g>
<g filter="url(#shadow)"><rect x="870" y="920.0" width="204" height="54.0" rx="14" fill="white" stroke="#d6ff56" stroke-width="2"/><rect x="870" y="920.0" width="10" height="54.0" rx="14" fill="#d6ff56"/>
<text x="888" y="941.0" font-family="Arial, sans-serif" font-size="12.5" fill="#111827">Electra Battery Materials Co</text>
<text x="888" y="955.0" font-family="Arial, sans-serif" font-size="12.5" fill="#111827">rp</text>
<text x="1060" y="951.0" text-anchor="end" font-family="Arial, sans-serif" font-size="11.5" fill="#64748b">64</text></g>
<g filter="url(#shadow)"><rect x="1120" y="752.0" width="204" height="40.0" rx="14" fill="white" stroke="#ffae57" stroke-width="2"/><rect x="1120" y="752.0" width="10" height="40.0" rx="14" fill="#ffae57"/>
<text x="1138" y="773.0" font-family="Arial, sans-serif" font-size="12.5" fill="#111827">Umicore S.A.</text>
<text x="1310" y="776.0" text-anchor="end" font-family="Arial, sans-serif" font-size="11.5" fill="#64748b">412</text></g>
<g filter="url(#shadow)"><rect x="1370" y="752.0" width="204" height="40.0" rx="14" fill="white" stroke="#ff7d7d" stroke-width="2"/><rect x="1370" y="752.0" width="10" height="40.0" rx="14" fill="#ff7d7d"/>
<text x="1388" y="773.0" font-family="Arial, sans-serif" font-size="12.5" fill="#111827">Umicore S.A.</text>
<text x="1560" y="776.0" text-anchor="end" font-family="Arial, sans-serif" font-size="11.5" fill="#64748b">389</text></g>
<g filter="url(#shadow)"><rect x="1620" y="336.7" width="204" height="40.0" rx="14" fill="white" stroke="#ff64c8" stroke-width="2"/><rect x="1620" y="336.7" width="10" height="40.0" rx="14" fill="#ff64c8"/>
<text x="1638" y="357.7" font-family="Arial, sans-serif" font-size="12.5" fill="#111827">LG Energy Solution (LGES)</text>
<text x="1810" y="360.7" text-anchor="end" font-family="Arial, sans-serif" font-size="11.5" fill="#64748b">407</text></g>
<g filter="url(#shadow)"><rect x="1620" y="453.3" width="204" height="40.0" rx="14" fill="white" stroke="#ff64c8" stroke-width="2"/><rect x="1620" y="453.3" width="10" height="40.0" rx="14" fill="#ff64c8"/>
<text x="1638" y="474.3" font-family="Arial, sans-serif" font-size="12.5" fill="#111827">Samsung SDI</text>
<text x="1810" y="477.3" text-anchor="end" font-family="Arial, sans-serif" font-size="11.5" fill="#64748b">150</text></g>
<g filter="url(#shadow)"><rect x="1620" y="570.0" width="204" height="54.0" rx="14" fill="white" stroke="#ff64c8" stroke-width="2"/><rect x="1620" y="570.0" width="10" height="54.0" rx="14" fill="#ff64c8"/>
<text x="1638" y="591.0" font-family="Arial, sans-serif" font-size="12.5" fill="#111827">Automotive Cells Company (AC</text>
<text x="1638" y="605.0" font-family="Arial, sans-serif" font-size="12.5" fill="#111827">C)</text>
<text x="1810" y="601.0" text-anchor="end" font-family="Arial, sans-serif" font-size="11.5" fill="#64748b">50</text></g>
<g filter="url(#shadow)"><rect x="1620" y="700.7" width="204" height="40.0" rx="14" fill="white" stroke="#ff64c8" stroke-width="2"/><rect x="1620" y="700.7" width="10" height="40.0" rx="14" fill="#ff64c8"/>
<text x="1638" y="721.7" font-family="Arial, sans-serif" font-size="12.5" fill="#111827">Tesla Inc.</text>
<text x="1810" y="724.7" text-anchor="end" font-family="Arial, sans-serif" font-size="11.5" fill="#64748b">50</text></g>
<g filter="url(#shadow)"><rect x="1620" y="817.3" width="204" height="40.0" rx="14" fill="white" stroke="#ff64c8" stroke-width="2"/><rect x="1620" y="817.3" width="10" height="40.0" rx="14" fill="#ff64c8"/>
<text x="1638" y="838.3" font-family="Arial, sans-serif" font-size="12.5" fill="#111827">PowerCo</text>
<text x="1810" y="841.3" text-anchor="end" font-family="Arial, sans-serif" font-size="11.5" fill="#64748b">25</text></g>
<g filter="url(#shadow)"><rect x="1620" y="934.0" width="204" height="40.0" rx="14" fill="white" stroke="#ff64c8" stroke-width="2"/><rect x="1620" y="934.0" width="10" height="40.0" rx="14" fill="#ff64c8"/>
<text x="1638" y="955.0" font-family="Arial, sans-serif" font-size="12.5" fill="#111827">L-H Battery Company, Inc.</text>
<text x="1810" y="958.0" text-anchor="end" font-family="Arial, sans-serif" font-size="11.5" fill="#64748b">15</text></g>
<g filter="url(#shadow)"><rect x="1620" y="1050.7" width="204" height="40.0" rx="14" fill="white" stroke="#ff64c8" stroke-width="2"/><rect x="1620" y="1050.7" width="10" height="40.0" rx="14" fill="#ff64c8"/>
<text x="1638" y="1071.7" font-family="Arial, sans-serif" font-size="12.5" fill="#111827">Ultium Cells LLC</text>
<text x="1810" y="1074.7" text-anchor="end" font-family="Arial, sans-serif" font-size="11.5" fill="#64748b">15</text></g>
<g filter="url(#shadow)"><rect x="1620" y="1167.3" width="204" height="40.0" rx="14" fill="white" stroke="#ff64c8" stroke-width="2"/><rect x="1620" y="1167.3" width="10" height="40.0" rx="14" fill="#ff64c8"/>
<text x="1638" y="1188.3" font-family="Arial, sans-serif" font-size="12.5" fill="#111827">Ningbo Shanshan Co Ltd</text>
<text x="1810" y="1191.3" text-anchor="end" font-family="Arial, sans-serif" font-size="11.5" fill="#64748b">2</text></g>
<g filter="url(#shadow)"><rect x="1870" y="308.7" width="204" height="40.0" rx="14" fill="white" stroke="#d18bff" stroke-width="2"/><rect x="1870" y="308.7" width="10" height="40.0" rx="14" fill="#d18bff"/>
<text x="1888" y="329.7" font-family="Arial, sans-serif" font-size="12.5" fill="#111827">Volkswagen Group</text>
<text x="2060" y="332.7" text-anchor="end" font-family="Arial, sans-serif" font-size="11.5" fill="#64748b">101</text></g>
<g filter="url(#shadow)"><rect x="1870" y="397.3" width="204" height="40.0" rx="14" fill="white" stroke="#d18bff" stroke-width="2"/><rect x="1870" y="397.3" width="10" height="40.0" rx="14" fill="#d18bff"/>
<text x="1888" y="418.3" font-family="Arial, sans-serif" font-size="12.5" fill="#111827">Mercedes-Benz</text>
<text x="2060" y="421.3" text-anchor="end" font-family="Arial, sans-serif" font-size="11.5" fill="#64748b">52</text></g>
<g filter="url(#shadow)"><rect x="1870" y="486.0" width="204" height="40.0" rx="14" fill="white" stroke="#d18bff" stroke-width="2"/><rect x="1870" y="486.0" width="10" height="40.0" rx="14" fill="#d18bff"/>
<text x="1888" y="507.0" font-family="Arial, sans-serif" font-size="12.5" fill="#111827">BMW Group</text>
<text x="2060" y="510.0" text-anchor="end" font-family="Arial, sans-serif" font-size="11.5" fill="#64748b">49</text></g>
<g filter="url(#shadow)"><rect x="1870" y="574.7" width="204" height="40.0" rx="14" fill="white" stroke="#d18bff" stroke-width="2"/><rect x="1870" y="574.7" width="10" height="40.0" rx="14" fill="#d18bff"/>
<text x="1888" y="595.7" font-family="Arial, sans-serif" font-size="12.5" fill="#111827">Stellantis</text>
<text x="2060" y="598.7" text-anchor="end" font-family="Arial, sans-serif" font-size="11.5" fill="#64748b">38</text></g>
<g filter="url(#shadow)"><rect x="1870" y="663.3" width="204" height="40.0" rx="14" fill="white" stroke="#d18bff" stroke-width="2"/><rect x="1870" y="663.3" width="10" height="40.0" rx="14" fill="#d18bff"/>
<text x="1888" y="684.3" font-family="Arial, sans-serif" font-size="12.5" fill="#111827">Hyundai Motor Group</text>
<text x="2060" y="687.3" text-anchor="end" font-family="Arial, sans-serif" font-size="11.5" fill="#64748b">28</text></g>
<g filter="url(#shadow)"><rect x="1870" y="752.0" width="204" height="40.0" rx="14" fill="white" stroke="#d18bff" stroke-width="2"/><rect x="1870" y="752.0" width="10" height="40.0" rx="14" fill="#d18bff"/>
<text x="1888" y="773.0" font-family="Arial, sans-serif" font-size="12.5" fill="#111827">JV Company</text>
<text x="2060" y="776.0" text-anchor="end" font-family="Arial, sans-serif" font-size="11.5" fill="#64748b">28</text></g>
<g filter="url(#shadow)"><rect x="1870" y="840.7" width="204" height="40.0" rx="14" fill="white" stroke="#d18bff" stroke-width="2"/><rect x="1870" y="840.7" width="10" height="40.0" rx="14" fill="#d18bff"/>
<text x="1888" y="861.7" font-family="Arial, sans-serif" font-size="12.5" fill="#111827">Mahindra Group</text>
<text x="2060" y="864.7" text-anchor="end" font-family="Arial, sans-serif" font-size="11.5" fill="#64748b">28</text></g>
<g filter="url(#shadow)"><rect x="1870" y="929.3" width="204" height="40.0" rx="14" fill="white" stroke="#d18bff" stroke-width="2"/><rect x="1870" y="929.3" width="10" height="40.0" rx="14" fill="#d18bff"/>
<text x="1888" y="950.3" font-family="Arial, sans-serif" font-size="12.5" fill="#111827">Renault Group</text>
<text x="2060" y="953.3" text-anchor="end" font-family="Arial, sans-serif" font-size="11.5" fill="#64748b">28</text></g>
<g filter="url(#shadow)"><rect x="1870" y="1018.0" width="204" height="40.0" rx="14" fill="white" stroke="#d18bff" stroke-width="2"/><rect x="1870" y="1018.0" width="10" height="40.0" rx="14" fill="#d18bff"/>
<text x="1888" y="1039.0" font-family="Arial, sans-serif" font-size="12.5" fill="#111827">Volvo Car Group</text>
<text x="2060" y="1042.0" text-anchor="end" font-family="Arial, sans-serif" font-size="11.5" fill="#64748b">28</text></g>
<g filter="url(#shadow)"><rect x="1870" y="1106.7" width="204" height="40.0" rx="14" fill="white" stroke="#d18bff" stroke-width="2"/><rect x="1870" y="1106.7" width="10" height="40.0" rx="14" fill="#d18bff"/>
<text x="1888" y="1127.7" font-family="Arial, sans-serif" font-size="12.5" fill="#111827">Envision AESC</text>
<text x="2060" y="1130.7" text-anchor="end" font-family="Arial, sans-serif" font-size="11.5" fill="#64748b">25</text></g>
<g filter="url(#shadow)"><rect x="1870" y="1195.3" width="204" height="40.0" rx="14" fill="white" stroke="#d18bff" stroke-width="2"/><rect x="1870" y="1195.3" width="10" height="40.0" rx="14" fill="#d18bff"/>
<text x="1888" y="1216.3" font-family="Arial, sans-serif" font-size="12.5" fill="#111827">Tesla Inc.</text>
<text x="2060" y="1219.3" text-anchor="end" font-family="Arial, sans-serif" font-size="11.5" fill="#64748b">24</text></g>
<g filter="url(#shadow)"><rect x="2120" y="290.9" width="204" height="40.0" rx="14" fill="white" stroke="#7ab6ff" stroke-width="2"/><rect x="2120" y="290.9" width="10" height="40.0" rx="14" fill="#7ab6ff"/>
<text x="2138" y="311.9" font-family="Arial, sans-serif" font-size="12.5" fill="#111827">Volkswagen Group</text>
<text x="2310" y="314.9" text-anchor="end" font-family="Arial, sans-serif" font-size="11.5" fill="#64748b">50</text></g>
<g filter="url(#shadow)"><rect x="2120" y="361.9" width="204" height="40.0" rx="14" fill="white" stroke="#7ab6ff" stroke-width="2"/><rect x="2120" y="361.9" width="10" height="40.0" rx="14" fill="#7ab6ff"/>
<text x="2138" y="382.9" font-family="Arial, sans-serif" font-size="12.5" fill="#111827">Hyundai Motor Group</text>
<text x="2310" y="385.9" text-anchor="end" font-family="Arial, sans-serif" font-size="11.5" fill="#64748b">40</text></g>
<g filter="url(#shadow)"><rect x="2120" y="432.8" width="204" height="40.0" rx="14" fill="white" stroke="#7ab6ff" stroke-width="2"/><rect x="2120" y="432.8" width="10" height="40.0" rx="14" fill="#7ab6ff"/>
<text x="2138" y="453.8" font-family="Arial, sans-serif" font-size="12.5" fill="#111827">BMW Group</text>
<text x="2310" y="456.8" text-anchor="end" font-family="Arial, sans-serif" font-size="11.5" fill="#64748b">36</text></g>
<g filter="url(#shadow)"><rect x="2120" y="503.7" width="204" height="40.0" rx="14" fill="white" stroke="#7ab6ff" stroke-width="2"/><rect x="2120" y="503.7" width="10" height="40.0" rx="14" fill="#7ab6ff"/>
<text x="2138" y="524.7" font-family="Arial, sans-serif" font-size="12.5" fill="#111827">Mercedes-Benz</text>
<text x="2310" y="527.7" text-anchor="end" font-family="Arial, sans-serif" font-size="11.5" fill="#64748b">26</text></g>
<g filter="url(#shadow)"><rect x="2120" y="574.7" width="204" height="40.0" rx="14" fill="white" stroke="#7ab6ff" stroke-width="2"/><rect x="2120" y="574.7" width="10" height="40.0" rx="14" fill="#7ab6ff"/>
<text x="2138" y="595.7" font-family="Arial, sans-serif" font-size="12.5" fill="#111827">Renault Group</text>
<text x="2310" y="598.7" text-anchor="end" font-family="Arial, sans-serif" font-size="11.5" fill="#64748b">26</text></g>
<g filter="url(#shadow)"><rect x="2120" y="645.6" width="204" height="40.0" rx="14" fill="white" stroke="#7ab6ff" stroke-width="2"/><rect x="2120" y="645.6" width="10" height="40.0" rx="14" fill="#7ab6ff"/>
<text x="2138" y="666.6" font-family="Arial, sans-serif" font-size="12.5" fill="#111827">Tesla Inc.</text>
<text x="2310" y="669.6" text-anchor="end" font-family="Arial, sans-serif" font-size="11.5" fill="#64748b">24</text></g>
<g filter="url(#shadow)"><rect x="2120" y="716.5" width="204" height="40.0" rx="14" fill="white" stroke="#7ab6ff" stroke-width="2"/><rect x="2120" y="716.5" width="10" height="40.0" rx="14" fill="#7ab6ff"/>
<text x="2138" y="737.5" font-family="Arial, sans-serif" font-size="12.5" fill="#111827">Ford Motor Company</text>
<text x="2310" y="740.5" text-anchor="end" font-family="Arial, sans-serif" font-size="11.5" fill="#64748b">14</text></g>
<g filter="url(#shadow)"><rect x="2120" y="787.5" width="204" height="40.0" rx="14" fill="white" stroke="#7ab6ff" stroke-width="2"/><rect x="2120" y="787.5" width="10" height="40.0" rx="14" fill="#7ab6ff"/>
<text x="2138" y="808.5" font-family="Arial, sans-serif" font-size="12.5" fill="#111827">Geely group</text>
<text x="2310" y="811.5" text-anchor="end" font-family="Arial, sans-serif" font-size="11.5" fill="#64748b">14</text></g>
<g filter="url(#shadow)"><rect x="2120" y="858.4" width="204" height="40.0" rx="14" fill="white" stroke="#7ab6ff" stroke-width="2"/><rect x="2120" y="858.4" width="10" height="40.0" rx="14" fill="#7ab6ff"/>
<text x="2138" y="879.4" font-family="Arial, sans-serif" font-size="12.5" fill="#111827">General Motors Co.</text>
<text x="2310" y="882.4" text-anchor="end" font-family="Arial, sans-serif" font-size="11.5" fill="#64748b">14</text></g>
<g filter="url(#shadow)"><rect x="2120" y="929.3" width="204" height="40.0" rx="14" fill="white" stroke="#7ab6ff" stroke-width="2"/><rect x="2120" y="929.3" width="10" height="40.0" rx="14" fill="#7ab6ff"/>
<text x="2138" y="950.3" font-family="Arial, sans-serif" font-size="12.5" fill="#111827">Honda Motor Co. Ltd.</text>
<text x="2310" y="953.3" text-anchor="end" font-family="Arial, sans-serif" font-size="11.5" fill="#64748b">14</text></g>
<g filter="url(#shadow)"><rect x="2120" y="1000.3" width="204" height="40.0" rx="14" fill="white" stroke="#7ab6ff" stroke-width="2"/><rect x="2120" y="1000.3" width="10" height="40.0" rx="14" fill="#7ab6ff"/>
<text x="2138" y="1021.3" font-family="Arial, sans-serif" font-size="12.5" fill="#111827">Mahindra Group</text>
<text x="2310" y="1024.3" text-anchor="end" font-family="Arial, sans-serif" font-size="11.5" fill="#64748b">14</text></g>
<g filter="url(#shadow)"><rect x="2120" y="1071.2" width="204" height="40.0" rx="14" fill="white" stroke="#7ab6ff" stroke-width="2"/><rect x="2120" y="1071.2" width="10" height="40.0" rx="14" fill="#7ab6ff"/>
<text x="2138" y="1092.2" font-family="Arial, sans-serif" font-size="12.5" fill="#111827">Toyota Motor Corporation</text>
<text x="2310" y="1095.2" text-anchor="end" font-family="Arial, sans-serif" font-size="11.5" fill="#64748b">14</text></g>
<g filter="url(#shadow)"><rect x="2120" y="1142.1" width="204" height="40.0" rx="14" fill="white" stroke="#7ab6ff" stroke-width="2"/><rect x="2120" y="1142.1" width="10" height="40.0" rx="14" fill="#7ab6ff"/>
<text x="2138" y="1163.1" font-family="Arial, sans-serif" font-size="12.5" fill="#111827">Volvo Car Group</text>
<text x="2310" y="1166.1" text-anchor="end" font-family="Arial, sans-serif" font-size="11.5" fill="#64748b">14</text></g>
<g filter="url(#shadow)"><rect x="2120" y="1213.1" width="204" height="40.0" rx="14" fill="white" stroke="#7ab6ff" stroke-width="2"/><rect x="2120" y="1213.1" width="10" height="40.0" rx="14" fill="#7ab6ff"/>
<text x="2138" y="1234.1" font-family="Arial, sans-serif" font-size="12.5" fill="#111827">Okai</text>
<text x="2310" y="1237.1" text-anchor="end" font-family="Arial, sans-serif" font-size="11.5" fill="#64748b">12</text></g>
</svg>