<svg xmlns="http://www.w3.org/2000/svg" width="2460" height="1392" viewBox="0 0 2460 1392">
<defs>
<filter id="shadow" x="-20%" y="-20%" width="140%" height="140%"><feDropShadow dx="0" dy="10" stdDeviation="12" flood-color="#0f172a" flood-opacity="0.12"/></filter>
</defs>
<rect width="2460" height="1392" fill="#f6f8fb"/>
<g filter="url(#shadow)"><rect x="88" y="34" width="2284" height="168" rx="18" fill="#ffffff" stroke="#dfe6ee" stroke-width="1.5"/></g>
<text x="120" y="92" font-family="Microsoft YaHei, Arial, sans-serif" font-size="30" font-weight="700" fill="#111827">TFM 物质流图</text>
<text x="120" y="126" font-family="Arial, sans-serif" font-size="17" font-weight="600" fill="#1f2937">Tenke Fungurume Mining (TFM)</text>
<text x="120" y="156" font-family="Microsoft YaHei, Arial, sans-serif" font-size="15" fill="#4b5d73">边宽代表 workbook 路径出现次数，节点按阶段从左到右展开。</text>
<text x="120" y="184" font-family="Microsoft YaHei, Arial, sans-serif" font-size="15" fill="#1f6fb9">阶段顺序：Mining → Smelting → Trading → Refining</text>
<rect x="104" y="226" width="234" height="1132" rx="22" fill="#c7d4e6" fill-opacity="0.17"/>
<g><rect x="110" y="184" width="156" height="34" rx="17" fill="#3de2d8" fill-opacity="0.18"/><text x="120" y="208" font-family="Arial, sans-serif" font-size="15" font-weight="700" fill="#0f172a">Mining</text></g>
<rect x="354" y="226" width="234" height="1132" rx="22" fill="#c7d4e6" fill-opacity="0.17"/>
<g><rect x="360" y="184" width="156" height="34" rx="17" fill="#8fff68" fill-opacity="0.18"/><text x="370" y="208" font-family="Arial, sans-serif" font-size="15" font-weight="700" fill="#0f172a">Smelting</text></g>
<rect x="604" y="226" width="234" height="1132" rx="22" fill="#c7d4e6" fill-opacity="0.17"/>
<g><rect x="610" y="184" width="156" height="34" rx="17" fill="#ffd85a" fill-opacity="0.18"/><text x="620" y="208" font-family="Arial, sans-serif" font-size="15" font-weight="700" fill="#0f172a">Trading</text></g>
<rect x="854" y="226" width="234" height="1132" rx="22" fill="#c7d4e6" fill-opacity="0.17"/>
<g><rect x="860" y="184" width="156" height="34" rx="17" fill="#d6ff56" fill-opacity="0.18"/><text x="870" y="208" font-family="Arial, sans-serif" font-size="15" font-weight="700" fill="#0f172a">Refining</text></g>
<rect x="1104" y="226" width="234" height="1132" rx="22" fill="#c7d4e6" fill-opacity="0.17"/>
<g><rect x="1110" y="184" width="156" height="34" rx="17" fill="#ffae57" fill-opacity="0.18"/><text x="1120" y="208" font-family="Arial, sans-serif" font-size="15" font-weight="700" fill="#0f172a">Precursor</text></g>
<rect x="1354" y="226" width="234" height="1132" rx="22" fill="#c7d4e6" fill-opacity="0.17"/>
<g><rect x="1360" y="184" width="156" height="34" rx="17" fill="#ff7d7d" fill-opacity="0.18"/><text x="1370" y="208" font-family="Arial, sans-serif" font-size="15" font-weight="700" fill="#0f172a">Cathode</text></g>
<rect x="1604" y="226" width="234" height="1132" rx="22" fill="#c7d4e6" fill-opacity="0.17"/>
<g><rect x="1610" y="184" width="156" height="34" rx="17" fill="#ff64c8" fill-opacity="0.18"/><text x="1620" y="208" font-family="Arial, sans-serif" font-size="15" font-weight="700" fill="#0f172a">Cell</text></g>
<rect x="1854" y="226" width="234" height="1132" rx="22" fill="#c7d4e6" fill-opacity="0.17"/>
<g><rect x="1860" y="184" width="156" height="34" rx="17" fill="#d18bff" fill-opacity="0.18"/><text x="1870" y="208" font-family="Arial, sans-serif" font-size="15" font-weight="700" fill="#0f172a">Pack</text></g>
<rect x="2104" y="226" width="234" height="1132" rx="22" fill="#c7d4e6" fill-opacity="0.17"/>
<g><rect x="2110" y="184" width="156" height="34" rx="17" fill="#7ab6ff" fill-opacity="0.18"/><text x="2120" y="208" font-family="Arial, sans-serif" font-size="15" font-weight="700" fill="#0f172a">EV / Scooter</text></g>
<path d="M 574.0 516.0 C 1013.3 516.0, 1180.7 836.0, 1620.0 836.0" stroke="#486179" stroke-opacity="0.22" stroke-width="2.33" fill="none"/>
<path d="M 574.0 1028.0 C 1013.3 1028.0, 1180.7 836.0, 1620.0 836.0" stroke="#486179" stroke-opacity="0.22" stroke-width="2.33" fill="none"/>
<path d="M 574.0 516.0 C 1118.3 516.0, 1325.7 492.7, 1870.0 492.7" stroke="#486179" stroke-opacity="0.22" stroke-width="2.33" fill="none"/>
<path d="M 574.0 1028.0 C 1118.3 1028.0, 1325.7 492.7, 1870.0 492.7" stroke="#486179" stroke-opacity="0.22" stroke-width="2.33" fill="none"/>
<path d="M 574.0 516.0 C 1118.3 516.0, 1325.7 1144.4, 1870.0 1144.4" stroke="#486179" stroke-opacity="0.22" stroke-width="2.33" fill="none"/>
<path d="M 574.0 1028.0 C 1118.3 1028.0, 1325.7 1144.4, 1870.0 1144.4" stroke="#486179" stroke-opacity="0.22" stroke-width="2.33" fill="none"/>
<path d="M 574.0 516.0 C 1118.3 516.0, 1325.7 306.5, 1870.0 306.5" stroke="#486179" stroke-opacity="0.22" stroke-width="2.33" fill="none"/>
<path d="M 574.0 1028.0 C 1118.3 1028.0, 1325.7 306.5, 1870.0 306.5" stroke="#486179" stroke-opacity="0.22" stroke-width="2.33" fill="none"/>
<path d="M 574.0 516.0 C 593.3 516.0, 600.7 516.0, 620.0 516.0" stroke="#486179" stroke-opacity="0.22" stroke-width="2.33" fill="none"/>
<path d="M 574.0 516.0 C 593.3 516.0, 600.7 686.7, 620.0 686.7" stroke="#486179" stroke-opacity="0.22" stroke-width="2.33" fill="none"/>
<path d="M 574.0 516.0 C 593.3 516.0, 600.7 857.3, 620.0 857.3" stroke="#486179" stroke-opacity="0.22" stroke-width="2.33" fill="none"/>
<path d="M 574.0 516.0 C 593.3 516.0, 600.7 1028.0, 620.0 1028.0" stroke="#486179" stroke-opacity="0.22" stroke-width="2.33" fill="none"/>
<path d="M 574.0 516.0 C 593.3 516.0, 600.7 1198.7, 620.0 1198.7" stroke="#486179" stroke-opacity="0.22" stroke-width="2.33" fill="none"/>
<path d="M 574.0 516.0 C 1013.3 516.0, 1180.7 964.0, 1620.0 964.0" stroke="#486179" stroke-opacity="0.22" stroke-width="2.33" fill="none"/>
<path d="M 574.0 1028.0 C 1013.3 1028.0, 1180.7 964.0, 1620.0 964.0" stroke="#486179" stroke-opacity="0.22" stroke-width="2.33" fill="none"/>
<path d="M 574.0 516.0 C 1013.3 516.0, 1180.7 1092.0, 1620.0 1092.0" stroke="#486179" stroke-opacity="0.22" stroke-width="2.33" fill="none"/>
<path d="M 574.0 1028.0 C 1013.3 1028.0, 1180.7 1092.0, 1620.0 1092.0" stroke="#486179" stroke-opacity="0.22" stroke-width="2.33" fill="none"/>
<path d="M 1074.0 516.0 C 1303.3 516.0, 1390.7 836.0, 1620.0 836.0" stroke="#486179" stroke-opacity="0.22" stroke-width="2.52" fill="none"/>
<path d="M 1074.0 516.0 C 1408.3 516.0, 1535.7 492.7, 1870.0 492.7" stroke="#486179" stroke-opacity="0.22" stroke-width="2.52" fill="none"/>
<path d="M 1074.0 516.0 C 1408.3 516.0, 1535.7 1144.4, 1870.0 1144.4" stroke="#486179" stroke-opacity="0.22" stroke-width="2.52" fill="none"/>
<path d="M 1074.0 516.0 C 1408.3 516.0, 1535.7 306.5, 1870.0 306.5" stroke="#486179" stroke-opacity="0.22" stroke-width="2.52" fill="none"/>
<path d="M 1074.0 1028.0 C 1303.3 1028.0, 1390.7 964.0, 1620.0 964.0" stroke="#486179" stroke-opacity="0.22" stroke-width="2.52" fill="none"/>
<path d="M 1074.0 1028.0 C 1303.3 1028.0, 1390.7 1092.0, 1620.0 1092.0" stroke="#486179" stroke-opacity="0.22" stroke-width="2.52" fill="none"/>
<path d="M 1074.0 516.0 C 1303.3 516.0, 1390.7 964.0, 1620.0 964.0" stroke="#486179" stroke-opacity="0.22" stroke-width="2.52" fill="none"/>
<path d="M 1074.0 516.0 C 1303.3 516.0, 1390.7 1092.0, 1620.0 1092.0" stroke="#486179" stroke-opacity="0.22" stroke-width="2.52" fill="none"/>
<path d="M 574.0 516.0 C 1013.3 516.0, 1180.7 580.0, 1620.0 580.0" stroke="#486179" stroke-opacity="0.22" stroke-width="2.52" fill="none"/>
<path d="M 574.0 1028.0 C 1013.3 1028.0, 1180.7 580.0, 1620.0 580.0" stroke="#486179" stroke-opacity="0.22" stroke-width="2.52" fill="none"/>
<path d="M 574.0 516.0 C 1013.3 516.0, 1180.7 708.0, 1620.0 708.0" stroke="#486179" stroke-opacity="0.22" stroke-width="2.52" fill="none"/>
<path d="M 574.0 1028.0 C 1013.3 1028.0, 1180.7 708.0, 1620.0 708.0" stroke="#486179" stroke-opacity="0.22" stroke-width="2.52" fill="none"/>
<path d="M 824.0 345.3 C 1158.3 345.3, 1285.7 1220.0, 1620.0 1220.0" stroke="#486179" stroke-opacity="0.22" stroke-width="2.52" fill="none"/>
<path d="M 1324.0 772.0 C 1448.3 772.0, 1495.7 836.0, 1620.0 836.0" stroke="#486179" stroke-opacity="0.22" stroke-width="2.67" fill="none"/>
<path d="M 1324.0 772.0 C 1553.3 772.0, 1640.7 492.7, 1870.0 492.7" stroke="#486179" stroke-opacity="0.22" stroke-width="2.67" fill="none"/>
<path d="M 1324.0 772.0 C 1553.3 772.0, 1640.7 1144.4, 1870.0 1144.4" stroke="#486179" stroke-opacity="0.22" stroke-width="2.67" fill="none"/>
<path d="M 1324.0 772.0 C 1553.3 772.0, 1640.7 306.5, 1870.0 306.5" stroke="#486179" stroke-opacity="0.22" stroke-width="2.67" fill="none"/>
<path d="M 1324.0 772.0 C 1448.3 772.0, 1495.7 964.0, 1620.0 964.0" stroke="#486179" stroke-opacity="0.22" stroke-width="2.67" fill="none"/>
<path d="M 1324.0 772.0 C 1448.3 772.0, 1495.7 1092.0, 1620.0 1092.0" stroke="#486179" stroke-opacity="0.22" stroke-width="2.67" fill="none"/>
<path d="M 1074.0 516.0 C 1303.3 516.0, 1390.7 580.0, 1620.0 580.0" stroke="#486179" stroke-opacity="0.22" stroke-width="2.81" fill="none"/>
<path d="M 1074.0 516.0 C 1303.3 516.0, 1390.7 708.0, 1620.0 708.0" stroke="#486179" stroke-opacity="0.22" stroke-width="2.81" fill="none"/>
<path d="M 1574.0 772.0 C 1593.3 772.0, 1600.7 836.0, 1620.0 836.0" stroke="#486179" stroke-opacity="0.22" stroke-width="3.05" fill="none"/>
<path d="M 1324.0 772.0 C 1448.3 772.0, 1495.7 580.0, 1620.0 580.0" stroke="#486179" stroke-opacity="0.22" stroke-width="3.05" fill="none"/>
<path d="M 1324.0 772.0 C 1448.3 772.0, 1495.7 708.0, 1620.0 708.0" stroke="#486179" stroke-opacity="0.22" stroke-width="3.05" fill="none"/>
<path d="M 1574.0 772.0 C 1698.3 772.0, 1745.7 492.7, 1870.0 492.7" stroke="#486179" stroke-opacity="0.22" stroke-width="3.05" fill="none"/>
<path d="M 1574.0 772.0 C 1698.3 772.0, 1745.7 1144.4, 1870.0 1144.4" stroke="#486179" stroke-opacity="0.22" stroke-width="3.05" fill="none"/>
<path d="M 1574.0 772.0 C 1698.3 772.0, 1745.7 306.5, 1870.0 306.5" stroke="#486179" stroke-opacity="0.22" stroke-width="3.05" fill="none"/>
<path d="M 1574.0 772.0 C 1593.3 772.0, 1600.7 964.0, 1620.0 964.0" stroke="#486179" stroke-opacity="0.22" stroke-width="3.05" fill="none"/>
<path d="M 1574.0 772.0 C 1593.3 772.0, 1600.7 1092.0, 1620.0 1092.0" stroke="#486179" stroke-opacity="0.22" stroke-width="3.05" fill="none"/>
<path d="M 574.0 516.0 C 1013.3 516.0, 1180.7 452.0, 1620.0 452.0" stroke="#486179" stroke-opacity="0.22" stroke-width="3.05" fill="none"/>
<path d="M 574.0 1028.0 C 1013.3 1028.0, 1180.7 452.0, 1620.0 452.0" stroke="#486179" stroke-opacity="0.22" stroke-width="3.05" fill="none"/>
<path d="M 1574.0 772.0 C 1593.3 772.0, 1600.7 580.0, 1620.0 580.0" stroke="#486179" stroke-opacity="0.22" stroke-width="3.65" fill="none"/>
<path d="M 1824.0 580.0 C 1843.3 580.0, 1850.7 399.6, 1870.0 399.6" stroke="#486179" stroke-opacity="0.22" stroke-width="3.65" fill="none"/>
<path d="M 1824.0 836.0 C 1843.3 836.0, 1850.7 306.5, 1870.0 306.5" stroke="#486179" stroke-opacity="0.22" stroke-width="3.65" fill="none"/>
<path d="M 1824.0 452.0 C 1843.3 452.0, 1850.7 492.7, 1870.0 492.7" stroke="#486179" stroke-opacity="0.22" stroke-width="3.65" fill="none"/>
<path d="M 1824.0 452.0 C 1843.3 452.0, 1850.7 306.5, 1870.0 306.5" stroke="#486179" stroke-opacity="0.22" stroke-width="3.65" fill="none"/>
<path d="M 1574.0 772.0 C 1593.3 772.0, 1600.7 708.0, 1620.0 708.0" stroke="#486179" stroke-opacity="0.22" stroke-width="3.65" fill="none"/>
<path d="M 1824.0 708.0 C 1843.3 708.0, 1850.7 1237.5, 1870.0 1237.5" stroke="#486179" stroke-opacity="0.22" stroke-width="3.65" fill="none"/>
<path d="M 2074.0 1237.5 C 2093.3 1237.5, 2100.7 662.3, 2120.0 662.3" stroke="#486179" stroke-opacity="0.22" stroke-width="3.65" fill="none"/>
<path d="M 2074.0 1144.4 C 2093.3 1144.4, 2100.7 589.1, 2120.0 589.1" stroke="#486179" stroke-opacity="0.22" stroke-width="3.65" fill="none"/>
<path d="M 1824.0 580.0 C 1843.3 580.0, 1850.7 585.8, 1870.0 585.8" stroke="#486179" stroke-opacity="0.22" stroke-width="3.65" fill="none"/>
<path d="M 1824.0 452.0 C 1948.3 452.0, 1995.7 442.9, 2120.0 442.9" stroke="#486179" stroke-opacity="0.22" stroke-width="3.65" fill="none"/>
<path d="M 1824.0 452.0 C 1948.3 452.0, 1995.7 369.7, 2120.0 369.7" stroke="#486179" stroke-opacity="0.22" stroke-width="3.65" fill="none"/>
<path d="M 1824.0 452.0 C 1948.3 452.0, 1995.7 1247.4, 2120.0 1247.4" stroke="#486179" stroke-opacity="0.22" stroke-width="3.65" fill="none"/>
<path d="M 1824.0 452.0 C 1843.3 452.0, 1850.7 585.8, 1870.0 585.8" stroke="#486179" stroke-opacity="0.22" stroke-width="3.65" fill="none"/>
<path d="M 1824.0 708.0 C 1948.3 708.0, 1995.7 662.3, 2120.0 662.3" stroke="#486179" stroke-opacity="0.22" stroke-width="3.65" fill="none"/>
<path d="M 1074.0 516.0 C 1303.3 516.0, 1390.7 452.0, 1620.0 452.0" stroke="#486179" stroke-opacity="0.22" stroke-width="3.65" fill="none"/>
<path d="M 1824.0 324.0 C 1843.3 324.0, 1850.7 678.9, 1870.0 678.9" stroke="#486179" stroke-opacity="0.22" stroke-width="3.83" fill="none"/>
<path d="M 2074.0 678.9 C 2093.3 678.9, 2100.7 369.7, 2120.0 369.7" stroke="#486179" stroke-opacity="0.22" stroke-width="3.83" fill="none"/>
<path d="M 1824.0 324.0 C 1843.3 324.0, 1850.7 772.0, 1870.0 772.0" stroke="#486179" stroke-opacity="0.22" stroke-width="3.83" fill="none"/>
<path d="M 2074.0 772.0 C 2093.3 772.0, 2100.7 808.6, 2120.0 808.6" stroke="#486179" stroke-opacity="0.22" stroke-width="3.83" fill="none"/>
<path d="M 1824.0 324.0 C 1843.3 324.0, 1850.7 865.1, 1870.0 865.1" stroke="#486179" stroke-opacity="0.22" stroke-width="3.83" fill="none"/>
<path d="M 2074.0 865.1 C 2093.3 865.1, 2100.7 1028.0, 2120.0 1028.0" stroke="#486179" stroke-opacity="0.22" stroke-width="3.83" fill="none"/>
<path d="M 1824.0 324.0 C 1843.3 324.0, 1850.7 399.6, 1870.0 399.6" stroke="#486179" stroke-opacity="0.22" stroke-width="3.83" fill="none"/>
<path d="M 1824.0 324.0 C 1843.3 324.0, 1850.7 958.2, 1870.0 958.2" stroke="#486179" stroke-opacity="0.22" stroke-width="3.83" fill="none"/>
<path d="M 2074.0 958.2 C 2093.3 958.2, 2100.7 589.1, 2120.0 589.1" stroke="#486179" stroke-opacity="0.22" stroke-width="3.83" fill="none"/>
<path d="M 1824.0 324.0 C 1843.3 324.0, 1850.7 306.5, 1870.0 306.5" stroke="#486179" stroke-opacity="0.22" stroke-width="3.83" fill="none"/>
<path d="M 1824.0 324.0 C 1843.3 324.0, 1850.7 1051.3, 1870.0 1051.3" stroke="#486179" stroke-opacity="0.22" stroke-width="3.83" fill="none"/>
<path d="M 2074.0 1051.3 C 2093.3 1051.3, 2100.7 1174.3, 2120.0 1174.3" stroke="#486179" stroke-opacity="0.22" stroke-width="3.83" fill="none"/>
<path d="M 1824.0 324.0 C 1948.3 324.0, 1995.7 735.4, 2120.0 735.4" stroke="#486179" stroke-opacity="0.22" stroke-width="3.83" fill="none"/>
<path d="M 1824.0 324.0 C 1948.3 324.0, 1995.7 881.7, 2120.0 881.7" stroke="#486179" stroke-opacity="0.22" stroke-width="3.83" fill="none"/>
<path d="M 1824.0 324.0 C 1948.3 324.0, 1995.7 954.9, 2120.0 954.9" stroke="#486179" stroke-opacity="0.22" stroke-width="3.83" fill="none"/>
<path d="M 1824.0 324.0 C 1948.3 324.0, 1995.7 369.7, 2120.0 369.7" stroke="#486179" stroke-opacity="0.22" stroke-width="3.83" fill="none"/>
<path d="M 1824.0 324.0 C 1948.3 324.0, 1995.7 1101.1, 2120.0 1101.1" stroke="#486179" stroke-opacity="0.22" stroke-width="3.83" fill="none"/>
<path d="M 1824.0 324.0 C 1843.3 324.0, 1850.7 585.8, 1870.0 585.8" stroke="#486179" stroke-opacity="0.22" stroke-width="3.83" fill="none"/>
<path d="M 574.0 516.0 C 1013.3 516.0, 1180.7 324.0, 1620.0 324.0" stroke="#486179" stroke-opacity="0.22" stroke-width="3.91" fill="none"/>
<path d="M 574.0 1028.0 C 1013.3 1028.0, 1180.7 324.0, 1620.0 324.0" stroke="#486179" stroke-opacity="0.22" stroke-width="3.91" fill="none"/>
<path d="M 1324.0 772.0 C 1448.3 772.0, 1495.7 452.0, 1620.0 452.0" stroke="#486179" stroke-opacity="0.22" stroke-width="4.15" fill="none"/>
<path d="M 2074.0 492.7 C 2093.3 492.7, 2100.7 442.9, 2120.0 442.9" stroke="#486179" stroke-opacity="0.22" stroke-width="4.60" fill="none"/>
<path d="M 2074.0 399.6 C 2093.3 399.6, 2100.7 516.0, 2120.0 516.0" stroke="#486179" stroke-opacity="0.22" stroke-width="4.73" fill="none"/>
<path d="M 574.0 516.0 C 908.3 516.0, 1035.7 772.0, 1370.0 772.0" stroke="#486179" stroke-opacity="0.22" stroke-width="4.94" fill="none"/>
<path d="M 574.0 1028.0 C 908.3 1028.0, 1035.7 772.0, 1370.0 772.0" stroke="#486179" stroke-opacity="0.22" stroke-width="4.94" fill="none"/>
<path d="M 824.0 345.3 C 843.3 345.3, 850.7 1028.0, 870.0 1028.0" stroke="#486179" stroke-opacity="0.22" stroke-width="5.00" fill="none"/>
<path d="M 1074.0 1028.0 C 1303.3 1028.0, 1390.7 324.0, 1620.0 324.0" stroke="#486179" stroke-opacity="0.22" stroke-width="5.00" fill="none"/>
<path d="M 1074.0 516.0 C 1303.3 516.0, 1390.7 324.0, 1620.0 324.0" stroke="#486179" stroke-opacity="0.22" stroke-width="5.00" fill="none"/>
<path d="M 1574.0 772.0 C 1593.3 772.0, 1600.7 452.0, 1620.0 452.0" stroke="#486179" stroke-opacity="0.22" stroke-width="5.38" fill="none"/>
<path d="M 1324.0 772.0 C 1448.3 772.0, 1495.7 324.0, 1620.0 324.0" stroke="#486179" stroke-opacity="0.22" stroke-width="5.91" fill="none"/>
<path d="M 2074.0 306.5 C 2093.3 306.5, 2100.7 296.6, 2120.0 296.6" stroke="#486179" stroke-opacity="0.22" stroke-width="6.18" fill="none"/>
<path d="M 1074.0 516.0 C 1198.3 516.0, 1245.7 772.0, 1370.0 772.0" stroke="#486179" stroke-opacity="0.22" stroke-width="6.61" fill="none"/>
<path d="M 574.0 516.0 C 803.3 516.0, 890.7 772.0, 1120.0 772.0" stroke="#486179" stroke-opacity="0.22" stroke-width="6.61" fill="none"/>
<path d="M 574.0 1028.0 C 803.3 1028.0, 890.7 772.0, 1120.0 772.0" stroke="#486179" stroke-opacity="0.22" stroke-width="6.61" fill="none"/>
<path d="M 1324.0 772.0 C 1343.3 772.0, 1350.7 772.0, 1370.0 772.0" stroke="#486179" stroke-opacity="0.22" stroke-width="8.00" fill="none"/>
<path d="M 1574.0 772.0 C 1593.3 772.0, 1600.7 324.0, 1620.0 324.0" stroke="#486179" stroke-opacity="0.22" stroke-width="8.13" fill="none"/>
<path d="M 1074.0 516.0 C 1093.3 516.0, 1100.7 772.0, 1120.0 772.0" stroke="#486179" stroke-opacity="0.22" stroke-width="9.23" fill="none"/>
<path d="M 324.0 772.0 C 343.3 772.0, 350.7 1028.0, 370.0 1028.0" stroke="#486179" stroke-opacity="0.22" stroke-width="9.23" fill="none"/>
<path d="M 574.0 516.0 C 593.3 516.0, 600.7 345.3, 620.0 345.3" stroke="#486179" stroke-opacity="0.22" stroke-width="9.86" fill="none"/>
<path d="M 324.0 772.0 C 448.3 772.0, 495.7 345.3, 620.0 345.3" stroke="#486179" stroke-opacity="0.22" stroke-width="9.86" fill="none"/>
<path d="M 824.0 345.3 C 843.3 345.3, 850.7 516.0, 870.0 516.0" stroke="#486179" stroke-opacity="0.22" stroke-width="13.34" fill="none"/>
<path d="M 324.0 772.0 C 343.3 772.0, 350.7 516.0, 370.0 516.0" stroke="#486179" stroke-opacity="0.22" stroke-width="14.00" fill="none"/>
<g filter="url(#shadow)"><rect x="120" y="752.0" width="204" height="40" rx="14" fill="white" stroke="#3de2d8" stroke-width="2"/><rect x="120" y="752.0" width="10" height="40" rx="14" fill="#3de2d8"/>
<text x="138" y="773.0" font-family="Arial, sans-serif" font-size="12.5" fill="#111827">Tenke Fungurume Mining (TFM)</text>
<text x="310" y="776.0" text-anchor="end" font-family="Arial, sans-serif" font-size="11.5" fill="#64748b">501</text></g>
<g filter="url(#shadow)"><rect x="370" y="496.0" width="204" height="40" rx="14" fill="white" stroke="#8fff68" stroke-width="2"/><rect x="370" y="496.0" width="10" height="40" rx="14" fill="#8fff68"/>
<text x="388" y="517.0" font-family="Arial, sans-serif" font-size="12.5" fill="#111827">Tenke Fungurume Mining (TFM)</text>
<text x="560" y="520.0" text-anchor="end" font-family="Arial, sans-serif" font-size="11.5" fill="#64748b">508</text></g>
<g filter="url(#shadow)"><rect x="370" y="1008.0" width="204" height="40" rx="14" fill="white" stroke="#8fff68" stroke-width="2"/><rect x="370" y="1008.0" width="10" height="40" rx="14" fill="#8fff68"/>
<text x="388" y="1029.0" font-family="Arial, sans-serif" font-size="12.5" fill="#111827">Umicore S.A.</text>
<text x="560" y="1032.0" text-anchor="end" font-family="Arial, sans-serif" font-size="11.5" fill="#64748b">234</text></g>
<g filter="url(#shadow)"><rect x="620" y="325.3" width="204" height="40" rx="14" fill="white" stroke="#ffd85a" stroke-width="2"/><rect x="620" y="325.3" width="10" height="40" rx="14" fill="#ffd85a"/>
<text x="638" y="346.3" font-family="Arial, sans-serif" font-size="12.5" fill="#111827">IXM SA</text>
<text x="810" y="349.3" text-anchor="end" font-family="Arial, sans-serif" font-size="11.5" fill="#64748b">528</text></g>
<g filter="url(#shadow)"><rect x="620" y="496.0" width="204" height="40" rx="14" fill="white" stroke="#ffd85a" stroke-width="2"/><rect x="620" y="496.0" width="10" height="40" rx="14" fill="#ffd85a"/>
<text x="638" y="517.0" font-family="Arial, sans-serif" font-size="12.5" fill="#111827">Bridge Shipping</text>
<text x="810" y="520.0" text-anchor="end" font-family="Arial, sans-serif" font-size="11.5" fill="#64748b">1</text></g>
<g filter="url(#shadow)"><rect x="620" y="666.7" width="204" height="40" rx="14" fill="white" stroke="#ffd85a" stroke-width="2"/><rect x="620" y="666.7" width="10" height="40" rx="14" fill="#ffd85a"/>
<text x="638" y="687.7" font-family="Arial, sans-serif" font-size="12.5" fill="#111827">CMOC Limited</text>
<text x="810" y="690.7" text-anchor="end" font-family="Arial, sans-serif" font-size="11.5" fill="#64748b">1</text></g>
<g filter="url(#shadow)"><rect x="620" y="837.3" width="204" height="40" rx="14" fill="white" stroke="#ffd85a" stroke-width="2"/><rect x="620" y="837.3" width="10" height="40" rx="14" fill="#ffd85a"/>
<text x="638" y="858.3" font-family="Arial, sans-serif" font-size="12.5" fill="#111827">Smart Logistics</text>
<text x="810" y="861.3" text-anchor="end" font-family="Arial, sans-serif" font-size="11.5" fill="#64748b">1</text></g>
<g filter="url(#shadow)"><rect x="620" y="1008.0" width="204" height="40" rx="14" fill="white" stroke="#ffd85a" stroke-width="2"/><rect x="620" y="1008.0" width="10" height="40" rx="14" fill="#ffd85a"/>
<text x="638" y="1029.0" font-family="Arial, sans-serif" font-size="12.5" fill="#111827">Trafigura Group Pte. Ltd.</text>
<text x="810" y="1032.0" text-anchor="end" font-family="Arial, sans-serif" font-size="11.5" fill="#64748b">1</text></g>
<g filter="url(#shadow)"><rect x="620" y="1178.7" width="204" height="40" rx="14" fill="white" stroke="#ffd85a" stroke-width="2"/><rect x="620" y="1178.7" width="10" height="40" rx="14" fill="#ffd85a"/>
<text x="638" y="1199.7" font-family="Arial, sans-serif" font-size="12.5" fill="#111827">VS Cargo</text>
<text x="810" y="1202.7" text-anchor="end" font-family="Arial, sans-serif" font-size="11.5" fill="#64748b">1</text></g>
<g filter="url(#shadow)"><rect x="870" y="496.0" width="204" height="40" rx="14" fill="white" stroke="#d6ff56" stroke-width="2"/><rect x="870" y="496.0" width="10" height="40" rx="14" fill="#d6ff56"/>
<text x="888" y="517.0" font-family="Arial, sans-serif" font-size="12.5" fill="#111827">Umicore S.A.</text>
<text x="1060" y="520.0" text-anchor="end" font-family="Arial, sans-serif" font-size="11.5" fill="#64748b">468</text></g>
<g filter="url(#shadow)"><rect x="870" y="1008.0" width="204" height="40" rx="14" fill="white" stroke="#d6ff56" stroke-width="2"/><rect x="870" y="1008.0" width="10" height="40" rx="14" fill="#d6ff56"/>
<text x="888" y="1022.0" font-family="Arial, sans-serif" font-size="12.5" fill="#111827">Electra Battery Materials Co</text>
<text x="888" y="1036.0" font-family="Arial, sans-serif" font-size="12.5" fill="#111827">rp</text>
<text x="1060" y="1032.0" text-anchor="end" font-family="Arial, sans-serif" font-size="11.5" fill="#64748b">64</text></g>
<g filter="url(#shadow)"><rect x="1120" y="752.0" width="204" height="40" rx="14" fill="white" stroke="#ffae57" stroke-width="2"/><rect x="1120" y="752.0" width="10" height="40" rx="14" fill="#ffae57"/>
<text x="1138" y="773.0" font-family="Arial, sans-serif" font-size="12.5" fill="#111827">Umicore S.A.</text>
<text x="1310" y="776.0" text-anchor="end" font-family="Arial, sans-serif" font-size="11.5" fill="#64748b">412</text></g>
<g filter="url(#shadow)"><rect x="1370" y="752.0" width="204" height="40" rx="14" fill="white" stroke="#ff7d7d" stroke-width="2"/><rect x="1370" y="752.0" width="10" height="40" rx="14" fill="#ff7d7d"/>
<text x="1388" y="773.0" font-family="Arial, sans-serif" font-size="12.5" fill="#111827">Umicore S.A.</text>
<text x="1560" y="776.0" text-anchor="end" font-family="Arial, sans-serif" font-size="11.5" fill="#64748b">389</text></g>
<g filter="url(#shadow)"><rect x="1620" y="304.0" width="204" height="40" rx="14" fill="white" stroke="#ff64c8" stroke-width="2"/><rect x="1620" y="304.0" width="10" height="40" rx="14" fill="#ff64c8"/>
<text x="1638" y="325.0" font-family="Arial, sans-serif" font-size="12.5" fill="#111827">LG Energy Solution (LGES)</text>
<text x="1810" y="328.0" text-anchor="end" font-family="Arial, sans-serif" font-size="11.5" fill="#64748b">407</text></g>
<g filter="url(#shadow)"><rect x="1620" y="432.0" width="204" height="40" rx="14" fill="white" stroke="#ff64c8" stroke-width="2"/><rect x="1620" y="432.0" width="10" height="40" rx="14" fill="#ff64c8"/>
<text x="1638" y="453.0" font-family="Arial, sans-serif" font-size="12.5" fill="#111827">Samsung SDI</text>
<text x="1810" y="456.0" text-anchor="end" font-family="Arial, sans-serif" font-size="11.5" fill="#64748b">150</text></g>
<g filter="url(#shadow)"><rect x="1620" y="560.0" width="204" height="40" rx="14" fill="white" stroke="#ff64c8" stroke-width="2"/><rect x="1620" y="560.0" width="10" height="40" rx="14" fill="#ff64c8"/>
<text x="1638" y="574.0" font-family="Arial, sans-serif" font-size="12.5" fill="#111827">Automotive Cells Company (AC</text>
<text x="1638" y="588.0" font-family="Arial, sans-serif" font-size="12.5" fill="#111827">C)</text>
<text x="1810" y="584.0" text-anchor="end" font-family="Arial, sans-serif" font-size="11.5" fill="#64748b">50</text></g>
<g filter="url(#shadow)"><rect x="1620" y="688.0" width="204" height="40" rx="14" fill="white" stroke="#ff64c8" stroke-width="2"/><rect x="1620" y="688.0" width="10" height="40" rx="14" fill="#ff64c8"/>
<text x="1638" y="709.0" font-family="Arial, sans-serif" font-size="12.5" fill="#111827">Tesla Inc.</text>
<text x="1810" y="712.0" text-anchor="end" font-family="Arial, sans-serif" font-size="11.5" fill="#64748b">50</text></g>
<g filter="url(#shadow)"><rect x="1620" y="816.0" width="204" height="40" rx="14" fill="white" stroke="#ff64c8" stroke-width="2"/><rect x="1620" y="816.0" width="10" height="40" rx="14" fill="#ff64c8"/>
<text x="1638" y="837.0" font-family="Arial, sans-serif" font-size="12.5" fill="#111827">PowerCo</text>
<text x="1810" y="840.0" text-anchor="end" font-family="Arial, sans-serif" font-size="11.5" fill="#64748b">25</text></g>
<g filter="url(#shadow)"><rect x="1620" y="944.0" width="204" height="40" rx="14" fill="white" stroke="#ff64c8" stroke-width="2"/><rect x="1620" y="944.0" width="10" height="40" rx="14" fill="#ff64c8"/>
<text x="1638" y="965.0" font-family="Arial, sans-serif" font-size="12.5" fill="#111827">L-H Battery Company, Inc.</text>
<text x="1810" y="968.0" text-anchor="end" font-family="Arial, sans-serif" font-size="11.5" fill="#64748b">15</text></g>
<g filter="url(#shadow)"><rect x="1620" y="1072.0" width="204" height="40" rx="14" fill="white" stroke="#ff64c8" stroke-width="2"/><rect x="1620" y="1072.0" width="10" height="40" rx="14" fill="#ff64c8"/>
<text x="1638" y="1093.0" font-family="Arial, sans-serif" font-size="12.5" fill="#111827">Ultium Cells LLC</text>
<text x="1810" y="1096.0" text-anchor="end" font-family="Arial, sans-serif" font-size="11.5" fill="#64748b">15</text></g>
<g filter="url(#shadow)"><rect x="1620" y="1200.0" width="204" height="40" rx="14" fill="white" stroke="#ff64c8" stroke-width="2"/><rect x="1620" y="1200.0" width="10" height="40" rx="14" fill="#ff64c8"/>
<text x="1638" y="1221.0" font-family="Arial, sans-serif" font-size="12.5" fill="#111827">Ningbo Shanshan Co Ltd</text>
<text x="1810" y="1224.0" text-anchor="end" font-family="Arial, sans-serif" font-size="11.5" fill="#64748b">2</text></g>
<g filter="url(#shadow)"><rect x="1870" y="286.5" width="204" height="40" rx="14" fill="white" stroke="#d18bff" stroke-width="2"/><rect x="1870" y="286.5" width="10" height="40" rx="14" fill="#d18bff"/>
<text x="1888" y="307.5" font-family="Arial, sans-serif" font-size="12.5" fill="#111827">Volkswagen Group</text>
<text x="2060" y="310.5" text-anchor="end" font-family="Arial, sans-serif" font-size="11.5" fill="#64748b">101</text></g>
<g filter="url(#shadow)"><rect x="1870" y="379.6" width="204" height="40" rx="14" fill="white" stroke="#d18bff" stroke-width="2"/><rect x="1870" y="379.6" width="10" height="40" rx="14" fill="#d18bff"/>
<text x="1888" y="400.6" font-family="Arial, sans-serif" font-size="12.5" fill="#111827">Mercedes-Benz</text>
<text x="2060" y="403.6" text-anchor="end" font-family="Arial, sans-serif" font-size="11.5" fill="#64748b">52</text></g>
<g filter="url(#shadow)"><rect x="1870" y="472.7" width="204" height="40" rx="14" fill="white" stroke="#d18bff" stroke-width="2"/><rect x="1870" y="472.7" width="10" height="40" rx="14" fill="#d18bff"/>
<text x="1888" y="493.7" font-family="Arial, sans-serif" font-size="12.5" fill="#111827">BMW Group</text>
<text x="2060" y="496.7" text-anchor="end" font-family="Arial, sans-serif" font-size="11.5" fill="#64748b">49</text></g>
<g filter="url(#shadow)"><rect x="1870" y="565.8" width="204" height="40" rx="14" fill="white" stroke="#d18bff" stroke-width="2"/><rect x="1870" y="565.8" width="10" height="40" rx="14" fill="#d18bff"/>
<text x="1888" y="586.8" font-family="Arial, sans-serif" font-size="12.5" fill="#111827">Stellantis</text>
<text x="2060" y="589.8" text-anchor="end" font-family="Arial, sans-serif" font-size="11.5" fill="#64748b">38</text></g>
<g filter="url(#shadow)"><rect x="1870" y="658.9" width="204" height="40" rx="14" fill="white" stroke="#d18bff" stroke-width="2"/><rect x="1870" y="658.9" width="10" height="40" rx="14" fill="#d18bff"/>
<text x="1888" y="679.9" font-family="Arial, sans-serif" font-size="12.5" fill="#111827">Hyundai Motor Group</text>
<text x="2060" y="682.9" text-anchor="end" font-family="Arial, sans-serif" font-size="11.5" fill="#64748b">28</text></g>
<g filter="url(#shadow)"><rect x="1870" y="752.0" width="204" height="40" rx="14" fill="white" stroke="#d18bff" stroke-width="2"/><rect x="1870" y="752.0" width="10" height="40" rx="14" fill="#d18bff"/>
<text x="1888" y="773.0" font-family="Arial, sans-serif" font-size="12.5" fill="#111827">JV Company</text>
<text x="2060" y="776.0" text-anchor="end" font-family="Arial, sans-serif" font-size="11.5" fill="#64748b">28</text></g>
<g filter="url(#shadow)"><rect x="1870" y="845.1" width="204" height="40" rx="14" fill="white" stroke="#d18bff" stroke-width="2"/><rect x="1870" y="845.1" width="10" height="40" rx="14" fill="#d18bff"/>
<text x="1888" y="866.1" font-family="Arial, sans-serif" font-size="12.5" fill="#111827">Mahindra Group</text>
<text x="2060" y="869.1" text-anchor="end" font-family="Arial, sans-serif" font-size="11.5" fill="#64748b">28</text></g>
<g filter="url(#shadow)"><rect x="1870" y="938.2" width="204" height="40" rx="14" fill="white" stroke="#d18bff" stroke-width="2"/><rect x="1870" y="938.2" width="10" height="40" rx="14" fill="#d18bff"/>
<text x="1888" y="959.2" font-family="Arial, sans-serif" font-size="12.5" fill="#111827">Renault Group</text>
<text x="2060" y="962.2" text-anchor="end" font-family="Arial, sans-serif" font-size="11.5" fill="#64748b">28</text></g>
<g filter="url(#shadow)"><rect x="1870" y="1031.3" width="204" height="40" rx="14" fill="white" stroke="#d18bff" stroke-width="2"/><rect x="1870" y="1031.3" width="10" height="40" rx="14" fill="#d18bff"/>
<text x="1888" y="1052.3" font-family="Arial, sans-serif" font-size="12.5" fill="#111827">Volvo Car Group</text>
<text x="2060" y="1055.3" text-anchor="end" font-family="Arial, sans-serif" font-size="11.5" fill="#64748b">28</text></g>
<g filter="url(#shadow)"><rect x="1870" y="1124.4" width="204" height="40" rx="14" fill="white" stroke="#d18bff" stroke-width="2"/><rect x="1870" y="1124.4" width="10" height="40" rx="14" fill="#d18bff"/>
<text x="1888" y="1145.4" font-family="Arial, sans-serif" font-size="12.5" fill="#111827">Envision AESC</text>
<text x="2060" y="1148.4" text-anchor="end" font-family="Arial, sans-serif" font-size="11.5" fill="#64748b">25</text></g>
<g filter="url(#shadow)"><rect x="1870" y="1217.5" width="204" height="40" rx="14" fill="white" stroke="#d18bff" stroke-width="2"/><rect x="1870" y="1217.5" width="10" height="40" rx="14" fill="#d18bff"/>
<text x="1888" y="1238.5" font-family="Arial, sans-serif" font-size="12.5" fill="#111827">Tesla Inc.</text>
<text x="2060" y="1241.5" text-anchor="end" font-family="Arial, sans-serif" font-size="11.5" fill="#64748b">24</text></g>
<g filter="url(#shadow)"><rect x="2120" y="276.6" width="204" height="40" rx="14" fill="white" stroke="#7ab6ff" stroke-width="2"/><rect x="2120" y="276.6" width="10" height="40" rx="14" fill="#7ab6ff"/>
<text x="2138" y="297.6" font-family="Arial, sans-serif" font-size="12.5" fill="#111827">Volkswagen Group</text>
<text x="2310" y="300.6" text-anchor="end" font-family="Arial, sans-serif" font-size="11.5" fill="#64748b">50</text></g>
<g filter="url(#shadow)"><rect x="2120" y="349.7" width="204" height="40" rx="14" fill="white" stroke="#7ab6ff" stroke-width="2"/><rect x="2120" y="349.7" width="10" height="40" rx="14" fill="#7ab6ff"/>
<text x="2138" y="370.7" font-family="Arial, sans-serif" font-size="12.5" fill="#111827">Hyundai Motor Group</text>
<text x="2310" y="373.7" text-anchor="end" font-family="Arial, sans-serif" font-size="11.5" fill="#64748b">40</text></g>
<g filter="url(#shadow)"><rect x="2120" y="422.9" width="204" height="40" rx="14" fill="white" stroke="#7ab6ff" stroke-width="2"/><rect x="2120" y="422.9" width="10" height="40" rx="14" fill="#7ab6ff"/>
<text x="2138" y="443.9" font-family="Arial, sans-serif" font-size="12.5" fill="#111827">BMW Group</text>
<text x="2310" y="446.9" text-anchor="end" font-family="Arial, sans-serif" font-size="11.5" fill="#64748b">36</text></g>
<g filter="url(#shadow)"><rect x="2120" y="496.0" width="204" height="40" rx="14" fill="white" stroke="#7ab6ff" stroke-width="2"/><rect x="2120" y="496.0" width="10" height="40" rx="14" fill="#7ab6ff"/>
<text x="2138" y="517.0" font-family="Arial, sans-serif" font-size="12.5" fill="#111827">Mercedes-Benz</text>
<text x="2310" y="520.0" text-anchor="end" font-family="Arial, sans-serif" font-size="11.5" fill="#64748b">26</text></g>
<g filter="url(#shadow)"><rect x="2120" y="569.1" width="204" height="40" rx="14" fill="white" stroke="#7ab6ff" stroke-width="2"/><rect x="2120" y="569.1" width="10" height="40" rx="14" fill="#7ab6ff"/>
<text x="2138" y="590.1" font-family="Arial, sans-serif" font-size="12.5" fill="#111827">Renault Group</text>
<text x="2310" y="593.1" text-anchor="end" font-family="Arial, sans-serif" font-size="11.5" fill="#64748b">26</text></g>
<g filter="url(#shadow)"><rect x="2120" y="642.3" width="204" height="40" rx="14" fill="white" stroke="#7ab6ff" stroke-width="2"/><rect x="2120" y="642.3" width="10" height="40" rx="14" fill="#7ab6ff"/>
<text x="2138" y="663.3" font-family="Arial, sans-serif" font-size="12.5" fill="#111827">Tesla Inc.</text>
<text x="2310" y="666.3" text-anchor="end" font-family="Arial, sans-serif" font-size="11.5" fill="#64748b">24</text></g>
<g filter="url(#shadow)"><rect x="2120" y="715.4" width="204" height="40" rx="14" fill="white" stroke="#7ab6ff" stroke-width="2"/><rect x="2120" y="715.4" width="10" height="40" rx="14" fill="#7ab6ff"/>
<text x="2138" y="736.4" font-family="Arial, sans-serif" font-size="12.5" fill="#111827">Ford Motor Company</text>
<text x="2310" y="739.4" text-anchor="end" font-family="Arial, sans-serif" font-size="11.5" fill="#64748b">14</text></g>
<g filter="url(#shadow)"><rect x="2120" y="788.6" width="204" height="40" rx="14" fill="white" stroke="#7ab6ff" stroke-width="2"/><rect x="2120" y="788.6" width="10" height="40" rx="14" fill="#7ab6ff"/>
<text x="2138" y="809.6" font-family="Arial, sans-serif" font-size="12.5" fill="#111827">Geely group</text>
<text x="2310" y="812.6" text-anchor="end" font-family="Arial, sans-serif" font-size="11.5" fill="#64748b">14</text></g>
<g filter="url(#shadow)"><rect x="2120" y="861.7" width="204" height="40" rx="14" fill="white" stroke="#7ab6ff" stroke-width="2"/><rect x="2120" y="861.7" width="10" height="40" rx="14" fill="#7ab6ff"/>
<text x="2138" y="882.7" font-family="Arial, sans-serif" font-size="12.5" fill="#111827">General Motors Co.</text>
<text x="2310" y="885.7" text-anchor="end" font-family="Arial, sans-serif" font-size="11.5" fill="#64748b">14</text></g>
<g filter="url(#shadow)"><rect x="2120" y="934.9" width="204" height="40" rx="14" fill="white" stroke="#7ab6ff" stroke-width="2"/><rect x="2120" y="934.9" width="10" height="40" rx="14" fill="#7ab6ff"/>
<text x="2138" y="955.9" font-family="Arial, sans-serif" font-size="12.5" fill="#111827">Honda Motor Co. Ltd.</text>
<text x="2310" y="958.9" text-anchor="end" font-family="Arial, sans-serif" font-size="11.5" fill="#64748b">14</text></g>
<g filter="url(#shadow)"><rect x="2120" y="1008.0" width="204" height="40" rx="14" fill="white" stroke="#7ab6ff" stroke-width="2"/><rect x="2120" y="1008.0" width="10" height="40" rx="14" fill="#7ab6ff"/>
<text x="2138" y="1029.0" font-family="Arial, sans-serif" font-size="12.5" fill="#111827">Mahindra Group</text>
<text x="2310" y="1032.0" text-anchor="end" font-family="Arial, sans-serif" font-size="11.5" fill="#64748b">14</text></g>
<g filter="url(#shadow)"><rect x="2120" y="1081.1" width="204" height="40" rx="14" fill="white" stroke="#7ab6ff" stroke-width="2"/><rect x="2120" y="1081.1" width="10" height="40" rx="14" fill="#7ab6ff"/>
<text x="2138" y="1102.1" font-family="Arial, sans-serif" font-size="12.5" fill="#111827">Toyota Motor Corporation</text>
<text x="2310" y="1105.1" text-anchor="end" font-family="Arial, sans-serif" font-size="11.5" fill="#64748b">14</text></g>
<g filter="url(#shadow)"><rect x="2120" y="1154.3" width="204" height="40" rx="14" fill="white" stroke="#7ab6ff" stroke-width="2"/><rect x="2120" y="1154.3" width="10" height="40" rx="14" fill="#7ab6ff"/>
<text x="2138" y="1175.3" font-family="Arial, sans-serif" font-size="12.5" fill="#111827">Volvo Car Group</text>
<text x="2310" y="1178.3" text-anchor="end" font-family="Arial, sans-serif" font-size="11.5" fill="#64748b">14</text></g>
<g filter="url(#shadow)"><rect x="2120" y="1227.4" width="204" height="40" rx="14" fill="white" stroke="#7ab6ff" stroke-width="2"/><rect x="2120" y="1227.4" width="10" height="40" rx="14" fill="#7ab6ff"/>
<text x="2138" y="1248.4" font-family="Arial, sans-serif" font-size="12.5" fill="#111827">Okai</text>
<text x="2310" y="1251.4" text-anchor="end" font-family="Arial, sans-serif" font-size="11.5" fill="#64748b">12</text></g>
</svg>